<svg xmlns="http://www.w3.org/2000/svg" width="59" height="59" viewBox="0 0 59 59">
  <metadata><?xpacket begin="﻿" id="W5M0MpCehiHzreSzNTczkc9d"?>
<x:xmpmeta xmlns:x="adobe:ns:meta/" x:xmptk="Adobe XMP Core 5.6-c138 79.159824, 2016/09/14-01:09:01        ">
   <rdf:RDF xmlns:rdf="http://www.w3.org/1999/02/22-rdf-syntax-ns#">
      <rdf:Description rdf:about=""/>
   </rdf:RDF>
</x:xmpmeta>
                                                                                                    
                                                                                                    
                                                                                                    
                                                                                                    
                                                                                                    
                                                                                                    
                                                                                                    
                                                                                                    
                                                                                                    
                                                                                                    
                                                                                                    
                                                                                                    
                                                                                                    
                                                                                                    
                                                                                                    
                                                                                                    
                                                                                                    
                                                                                                    
                                                                                                    
                                                                                                    
                           
<?xpacket end="w"?></metadata>
<defs>
    <style>
      .cls-1 {
        fill: #666d89;
        fill-rule: evenodd;
      }

      .cls-2 {
        fill: none;
        stroke: #666d89;
        stroke-width: 2px;
      }
    </style>
  </defs>
  <path id="bulb" class="cls-1" d="M30,13A11,11,0,0,0,19,24c0,4.031,3.689,8.3,5.031,12.055C26.034,41.651,25.813,45,30,45c4.25,0,3.965-3.334,5.969-8.922C37.316,32.319,41,28,41,24A11,11,0,0,0,30,13Zm2.593,27.176-4.959.62c-0.177-.513-0.367-1.112-0.6-1.893,0-.01-0.007-0.022-0.009-0.031l6.188-.773c-0.088.3-.183,0.607-0.264,0.884C32.821,39.431,32.7,39.822,32.593,40.176Zm-5.856-2.268c-0.182-.6-0.387-1.236-0.615-1.908h7.766c-0.122.36-.245,0.719-0.351,1.059ZM30,43a1.738,1.738,0,0,1-2-1.25l4.238-.53C31.628,42.873,31.181,43,30,43Zm4.672-9H25.339c-0.5-1.079-1.1-2.16-1.686-3.217C22.349,28.448,21,26.033,21,24a9,9,0,0,1,18,0c0,2.018-1.35,4.446-2.655,6.795C35.76,31.849,35.167,32.926,34.672,34ZM30,18a6.006,6.006,0,0,0-6,6,0.5,0.5,0,0,0,1,0,5.006,5.006,0,0,1,5-5A0.5,0.5,0,1,0,30,18Z"/>
  <circle id="Ellipse" class="cls-2" cx="29.5" cy="29.5" r="29.5"/>
</svg>
