<svg xmlns="http://www.w3.org/2000/svg" width="59" height="59" viewBox="0 0 59 59">
  <metadata><?xpacket begin="﻿" id="W5M0MpCehiHzreSzNTczkc9d"?>
<x:xmpmeta xmlns:x="adobe:ns:meta/" x:xmptk="Adobe XMP Core 5.6-c138 79.159824, 2016/09/14-01:09:01        ">
   <rdf:RDF xmlns:rdf="http://www.w3.org/1999/02/22-rdf-syntax-ns#">
      <rdf:Description rdf:about=""/>
   </rdf:RDF>
</x:xmpmeta>
                                                                                                    
                                                                                                    
                                                                                                    
                                                                                                    
                                                                                                    
                                                                                                    
                                                                                                    
                                                                                                    
                                                                                                    
                                                                                                    
                                                                                                    
                                                                                                    
                                                                                                    
                                                                                                    
                                                                                                    
                                                                                                    
                                                                                                    
                                                                                                    
                                                                                                    
                                                                                                    
                           
<?xpacket end="w"?></metadata>
<defs>
    <style>
      .cls-1 {
        fill: #666d89;
        fill-rule: evenodd;
      }

      .cls-2 {
        fill: none;
        stroke: #666d89;
        stroke-width: 2px;
      }
    </style>
  </defs>
  <path id="heart" class="cls-1" d="M43.192,18.792A9.632,9.632,0,0,0,30,18.5a9.631,9.631,0,0,0-13.192.288,9.4,9.4,0,0,0,0,13.4l11.053,10.93a3.047,3.047,0,0,0,4.278,0l11.053-10.93A9.4,9.4,0,0,0,43.192,18.792ZM41.765,30.781L30.713,41.711a1.015,1.015,0,0,1-1.425,0L18.235,30.781a7.429,7.429,0,0,1,0-10.579,7.6,7.6,0,0,1,10.409-.221L30,21.2l1.356-1.218a7.6,7.6,0,0,1,10.409.221A7.429,7.429,0,0,1,41.765,30.781ZM23.252,21.026h0A4.247,4.247,0,0,0,19,25.272h0a0.5,0.5,0,0,0,1,0h0a3.248,3.248,0,0,1,3.249-3.245h0A0.5,0.5,0,1,0,23.252,21.026Z"/>
  <circle id="Ellipse" class="cls-2" cx="29.5" cy="29.5" r="29.5"/>
</svg>
