<svg xmlns="http://www.w3.org/2000/svg" width="59" height="59" viewBox="0 0 59 59">
  <metadata><?xpacket begin="﻿" id="W5M0MpCehiHzreSzNTczkc9d"?>
<x:xmpmeta xmlns:x="adobe:ns:meta/" x:xmptk="Adobe XMP Core 5.6-c138 79.159824, 2016/09/14-01:09:01        ">
   <rdf:RDF xmlns:rdf="http://www.w3.org/1999/02/22-rdf-syntax-ns#">
      <rdf:Description rdf:about=""/>
   </rdf:RDF>
</x:xmpmeta>
                                                                                                    
                                                                                                    
                                                                                                    
                                                                                                    
                                                                                                    
                                                                                                    
                                                                                                    
                                                                                                    
                                                                                                    
                                                                                                    
                                                                                                    
                                                                                                    
                                                                                                    
                                                                                                    
                                                                                                    
                                                                                                    
                                                                                                    
                                                                                                    
                                                                                                    
                                                                                                    
                           
<?xpacket end="w"?></metadata>
<defs>
    <style>
      .cls-1 {
        fill: #666d89;
        fill-rule: evenodd;
      }

      .cls-2 {
        fill: none;
        stroke: #666d89;
        stroke-width: 2px;
      }
    </style>
  </defs>
  <path id="phone" class="cls-1" d="M38,14H22a3,3,0,0,0-3,3V43a3,3,0,0,0,3,3H38a3,3,0,0,0,3-3V17A3,3,0,0,0,38,14Zm1,29a1,1,0,0,1-1,1H22a1,1,0,0,1-1-1V41H39v2Zm0-3H21V20H39V40Zm0-21H21V17a1,1,0,0,1,1-1H38a1,1,0,0,1,1,1v2Zm-7-1.5a0.5,0.5,0,0,1-.5.5h-3a0.5,0.5,0,0,1-.5-0.5h0a0.5,0.5,0,0,1,.5-0.5h3a0.5,0.5,0,0,1,.5.5h0Zm-1,25a0.5,0.5,0,0,1-.5.5h-1a0.5,0.5,0,0,1-.5-0.5h0a0.5,0.5,0,0,1,.5-0.5h1a0.5,0.5,0,0,1,.5.5h0Z"/>
  <circle id="Ellipse" class="cls-2" cx="29.5" cy="29.5" r="29.5"/>
</svg>
