<svg xmlns="http://www.w3.org/2000/svg" width="59" height="59" viewBox="0 0 59 59">
  <metadata><?xpacket begin="﻿" id="W5M0MpCehiHzreSzNTczkc9d"?>
<x:xmpmeta xmlns:x="adobe:ns:meta/" x:xmptk="Adobe XMP Core 5.6-c138 79.159824, 2016/09/14-01:09:01        ">
   <rdf:RDF xmlns:rdf="http://www.w3.org/1999/02/22-rdf-syntax-ns#">
      <rdf:Description rdf:about=""/>
   </rdf:RDF>
</x:xmpmeta>
                                                                                                    
                                                                                                    
                                                                                                    
                                                                                                    
                                                                                                    
                                                                                                    
                                                                                                    
                                                                                                    
                                                                                                    
                                                                                                    
                                                                                                    
                                                                                                    
                                                                                                    
                                                                                                    
                                                                                                    
                                                                                                    
                                                                                                    
                                                                                                    
                                                                                                    
                                                                                                    
                           
<?xpacket end="w"?></metadata>
<defs>
    <style>
      .cls-1 {
        fill: #666d89;
        fill-rule: evenodd;
      }

      .cls-2 {
        fill: none;
        stroke: #666d89;
        stroke-width: 2px;
      }
    </style>
  </defs>
  <path id="bubble" class="cls-1" d="M30,21c-5.963,0-11,3.206-11,7a0.5,0.5,0,0,0,1,0c0-3.2,4.673-6,10-6A0.5,0.5,0,0,0,30,21Zm0-5c-8.837,0-16,5.373-16,12,0,4.127,2.779,7.766,7.008,9.926,0,0.027-.008.045-0.008,0.074,0,1.793-1.339,3.723-1.928,4.736h0A0.9,0.9,0,0,0,19.906,44a2.471,2.471,0,0,1,.255-0.013c3.125-.512,6.069-3.383,6.753-4.216A21.269,21.269,0,0,0,30,40c8.836,0,16-5.373,16-12S38.836,16,30,16Zm0,22a19.353,19.353,0,0,1-2.8-.207,1.937,1.937,0,0,0-.29-0.022,2,2,0,0,0-1.546.731,13.44,13.44,0,0,1-3.085,2.539A7.825,7.825,0,0,0,23,38.111c0.006-.065.009-0.129,0.009-0.185a2,2,0,0,0-1.09-1.781C18.212,34.252,16,31.207,16,28c0-5.514,6.28-10,14-10s14,4.486,14,10S37.72,38,30,38Z"/>
  <circle id="Ellipse" class="cls-2" cx="29.5" cy="29.5" r="29.5"/>
</svg>
