<svg xmlns="http://www.w3.org/2000/svg" width="59" height="59" viewBox="0 0 59 59">
  <metadata><?xpacket begin="﻿" id="W5M0MpCehiHzreSzNTczkc9d"?>
<x:xmpmeta xmlns:x="adobe:ns:meta/" x:xmptk="Adobe XMP Core 5.6-c138 79.159824, 2016/09/14-01:09:01        ">
   <rdf:RDF xmlns:rdf="http://www.w3.org/1999/02/22-rdf-syntax-ns#">
      <rdf:Description rdf:about=""/>
   </rdf:RDF>
</x:xmpmeta>
                                                                                                    
                                                                                                    
                                                                                                    
                                                                                                    
                                                                                                    
                                                                                                    
                                                                                                    
                                                                                                    
                                                                                                    
                                                                                                    
                                                                                                    
                                                                                                    
                                                                                                    
                                                                                                    
                                                                                                    
                                                                                                    
                                                                                                    
                                                                                                    
                                                                                                    
                                                                                                    
                           
<?xpacket end="w"?></metadata>
<defs>
    <style>
      .cls-1 {
        fill: #666d89;
        fill-rule: evenodd;
      }

      .cls-2 {
        fill: none;
        stroke: #666d89;
        stroke-width: 2px;
      }
    </style>
  </defs>
  <path id="star" class="cls-1" d="M45.881,25.557a2.3,2.3,0,0,0-1.843-1.511l-8.326-1.238-3.62-7.514a2.338,2.338,0,0,0-4.184,0l-3.619,7.514-8.327,1.238a2.3,2.3,0,0,0-1.842,1.511,2.205,2.205,0,0,0,.537,2.285l6.1,6.093-1.415,8.451a2.226,2.226,0,0,0,.948,2.2,2.365,2.365,0,0,0,2.449.131L30,40.812l7.26,3.908a2.366,2.366,0,0,0,2.449-.131,2.228,2.228,0,0,0,.948-2.2l-1.416-8.451,6.1-6.093A2.208,2.208,0,0,0,45.881,25.557Zm-8.293,6.807a2.213,2.213,0,0,0-.626,1.934l1.415,8.452-7.259-3.907a2.362,2.362,0,0,0-2.235,0l-7.26,3.907L23.039,34.3a2.213,2.213,0,0,0-.626-1.934l-6.1-6.092,8.326-1.24a2.307,2.307,0,0,0,1.743-1.268L30,16.251l3.62,7.513a2.305,2.305,0,0,0,1.742,1.268l8.327,1.24Z"/>
  <circle id="Ellipse" class="cls-2" cx="29.5" cy="29.5" r="29.5"/>
</svg>
