<svg xmlns="http://www.w3.org/2000/svg" width="59" height="59" viewBox="0 0 59 59">
  <metadata><?xpacket begin="﻿" id="W5M0MpCehiHzreSzNTczkc9d"?>
<x:xmpmeta xmlns:x="adobe:ns:meta/" x:xmptk="Adobe XMP Core 5.6-c138 79.159824, 2016/09/14-01:09:01        ">
   <rdf:RDF xmlns:rdf="http://www.w3.org/1999/02/22-rdf-syntax-ns#">
      <rdf:Description rdf:about=""/>
   </rdf:RDF>
</x:xmpmeta>
                                                                                                    
                                                                                                    
                                                                                                    
                                                                                                    
                                                                                                    
                                                                                                    
                                                                                                    
                                                                                                    
                                                                                                    
                                                                                                    
                                                                                                    
                                                                                                    
                                                                                                    
                                                                                                    
                                                                                                    
                                                                                                    
                                                                                                    
                                                                                                    
                                                                                                    
                                                                                                    
                           
<?xpacket end="w"?></metadata>
<defs>
    <style>
      .cls-1 {
        fill: #666d89;
        fill-rule: evenodd;
      }

      .cls-2 {
        fill: none;
        stroke: #666d89;
        stroke-width: 2px;
      }
    </style>
  </defs>
  <path id="pen" class="cls-1" d="M43.4,16.58A8.544,8.544,0,0,0,37.449,14a6.541,6.541,0,0,0-4.669,1.877l-4.867,4.9c-0.015.014-.032,0.024-0.047,0.038s-0.013.019-.02,0.027l0,0L17.518,31.256A4.021,4.021,0,0,0,16.5,32.961l-2.349,8.508A6.863,6.863,0,0,0,14,42.5,3.5,3.5,0,0,0,17.5,46a7.111,7.111,0,0,0,1.157-.188l8.478-2.229a4.028,4.028,0,0,0,1.705-1.016L44.107,27.186C46.884,24.406,46.571,19.75,43.4,16.58ZM30.015,37.8a8.144,8.144,0,0,0-.719-2.628l9.454-9.453a4.875,4.875,0,0,1-.986,5c-0.008.008-.017,0.013-0.025,0.02l0.013,0.013-7.728,7.789C30.025,38.293,30.037,38.049,30.015,37.8Zm-1.221-3.54a9.052,9.052,0,0,0-1.322-1.728,8.967,8.967,0,0,0-2.044-1.492L34.96,21.5a6.909,6.909,0,0,1,3.378,3.208Zm-4.308-3.693a7.974,7.974,0,0,0-2.868-.6l7.7-7.761a4.8,4.8,0,0,1,4.588-1.062Zm-6.318,13.31a4.9,4.9,0,0,1-.679.127A1.5,1.5,0,0,1,16,42.5a5.077,5.077,0,0,1,.1-0.562l1.053-3.814A4.74,4.74,0,0,1,21.888,42.9Zm4.706-1.236A5.583,5.583,0,0,0,21.2,38.8a5.7,5.7,0,0,0-3.766-1.7l1-3.607a1.972,1.972,0,0,1,.391-0.685c2.006-1.435,5.091-1.012,7.234,1.133,2.267,2.267,2.617,5.586.871,7.568a2.123,2.123,0,0,1-.359.157ZM42.692,25.773l-1.685,1.7c0-.226.027-0.443,0.007-0.674a8.834,8.834,0,0,0-8.472-7.84l1.657-1.67A4.547,4.547,0,0,1,37.449,16a6.912,6.912,0,0,1,6.539,6.163A4.582,4.582,0,0,1,42.692,25.773Z"/>
  <circle id="Ellipse" class="cls-2" cx="29.5" cy="29.5" r="29.5"/>
</svg>
